<svg id="Layer_1" data-name="Layer 1" xmlns="http://www.w3.org/2000/svg" viewBox="0 0 65 26"><defs><style>.cls-1{fill:#fff;}.cls-2{fill:#00e599;}.cls-3{fill:#00af92;}</style></defs><title>logo files</title><path class="cls-1" d="M35.8,8a4.2,4.2,0,0,1,1.3,3.3v7.4H35.2V11.9a3.8,3.8,0,0,0-.7-2.6,2.9,2.9,0,0,0-2.1-.8,3.3,3.3,0,0,0-1.7.4,3.5,3.5,0,0,0-1.4,1.3,5.2,5.2,0,0,0-.5,2.3v6.2H27V7.5l1.7.7v.7a3.3,3.3,0,0,1,1.6-1.5,5.6,5.6,0,0,1,2.3-.5A4.8,4.8,0,0,1,35.8,8Z"/><path class="cls-1" d="M50.2,13.6H41.5a3.8,3.8,0,0,0,1.2,2.7,3.4,3.4,0,0,0,2.6,1,6.5,6.5,0,0,0,2.1-.4,2.3,2.3,0,0,0,1.1-1.3l1.6.8a5.8,5.8,0,0,1-1.9,1.9,6,6,0,0,1-2.9.6,5.3,5.3,0,0,1-4.1-1.6,6,6,0,0,1-1.5-4.4,6.6,6.6,0,0,1,1.4-4.4,5.1,5.1,0,0,1,4.1-1.6,4.7,4.7,0,0,1,2.7.7,4.4,4.4,0,0,1,1.8,2,6,6,0,0,1,.6,2.7A5.7,5.7,0,0,1,50.2,13.6ZM42.7,9.4A4.9,4.9,0,0,0,41.5,12h7a4.1,4.1,0,0,0-1-2.6,3.2,3.2,0,0,0-2.3-.9A3.3,3.3,0,0,0,42.7,9.4Z"/><path class="cls-1" d="M62.6,8.5A6.6,6.6,0,0,1,64,12.9a6.4,6.4,0,0,1-1.4,4.4,5.3,5.3,0,0,1-4.1,1.6,5,5,0,0,1-4.1-1.6,6,6,0,0,1-1.5-4.4,6.2,6.2,0,0,1,1.5-4.4,5,5,0,0,1,4.1-1.6A5.3,5.3,0,0,1,62.6,8.5ZM55.7,9.7a4.6,4.6,0,0,0-1,3.2,4.4,4.4,0,0,0,1,3.2,3.5,3.5,0,0,0,2.8,1.2,3.4,3.4,0,0,0,2.7-1.2,4.4,4.4,0,0,0,1-3.2,4.6,4.6,0,0,0-1-3.2,3.4,3.4,0,0,0-2.7-1.2A3.5,3.5,0,0,0,55.7,9.7Z"/><polygon class="cls-2" points="1.9 4.7 1.9 20.7 12.3 24.5 12.3 8.3 23.6 4.1 13.3 0.5 1.9 4.7"/><polygon class="cls-3" points="13.1 8.9 13.1 17.5 23.6 21.3 23.6 5 13.1 8.9"/></svg>