<svg xmlns="http://www.w3.org/2000/svg" width="26" height="37.031" viewBox="0 0 26 37.031">
  <defs>
    <style>
      .cls-1 {
        fill: #fff;
        fill-rule: evenodd;
      }
    </style>
  </defs>
  <path id="形状_3_拷贝_2" data-name="形状 3 拷贝 2" class="cls-1" d="M92,50.055A12.719,12.719,0,0,1,82.89,62.146a11.005,11.005,0,0,0,1.157-.464,13.173,13.173,0,0,0,4.069-3.065,12.3,12.3,0,0,0,2.657-4.3,9,9,0,0,0,.278-4.971A9.191,9.191,0,0,0,88.528,45a11.1,11.1,0,0,0-4.386-2.583,17.107,17.107,0,0,0-5.066-.715H78.925a17.116,17.116,0,0,0-5.067.715A11.1,11.1,0,0,0,69.472,45a9.191,9.191,0,0,0-2.524,4.352,9.009,9.009,0,0,0,.278,4.971,12.3,12.3,0,0,0,2.657,4.3,13.172,13.172,0,0,0,4.069,3.065,11.082,11.082,0,0,0,1.155.464A12.719,12.719,0,0,1,66,50.056a11.786,11.786,0,0,1,4.466-9.59c0.276-.218.5-0.4,0.5-0.4a3.648,3.648,0,0,0,.882-2.326,24.337,24.337,0,0,0-1.253-5.111,1.538,1.538,0,0,0-1.129-.649h0A2.945,2.945,0,0,1,66.6,29.119a2.939,2.939,0,0,1,5.876,0,3.208,3.208,0,0,1-.93,2.088,1.14,1.14,0,0,0-.283,1.13A13.986,13.986,0,0,0,74,36.938a2.593,2.593,0,0,0,1.376.769,1.753,1.753,0,0,0,.6,0,9.991,9.991,0,0,1,2.977-.326h0.085a10,10,0,0,1,2.978.326,1.753,1.753,0,0,0,.6,0A2.594,2.594,0,0,0,84,36.938a14.012,14.012,0,0,0,2.734-4.6,1.142,1.142,0,0,0-.282-1.13,3.209,3.209,0,0,1-.931-2.088,2.939,2.939,0,0,1,5.876,0,2.944,2.944,0,0,1-2.861,2.858h0a1.541,1.541,0,0,0-1.129.649,24.413,24.413,0,0,0-1.253,5.111,3.642,3.642,0,0,0,.883,2.326s0.225,0.183.5,0.4A11.788,11.788,0,0,1,92,50.055Zm-1-.17A9.225,9.225,0,0,0,88.5,45.53a11.014,11.014,0,0,0-4.359-2.584,16.918,16.918,0,0,0-5.084-.715H78.989a16.921,16.921,0,0,0-5.083.715,11.009,11.009,0,0,0-4.358,2.584,9.188,9.188,0,0,0-2.508,4.354,9.06,9.06,0,0,0,.275,4.973,12.318,12.318,0,0,0,2.641,4.3A13.1,13.1,0,0,0,74,62.222a10.807,10.807,0,0,0,1.148.464,13.14,13.14,0,0,0,3.84.579h0.066a13.124,13.124,0,0,0,3.85-.582,10.908,10.908,0,0,0,1.14-.462,13.094,13.094,0,0,0,4.042-3.066,12.325,12.325,0,0,0,2.643-4.3A9.071,9.071,0,0,0,91.005,49.884Zm-13.95,6.428a6.4,6.4,0,0,1-.338.917,3.642,3.642,0,0,1-2.339,2.188,5.07,5.07,0,0,1-3.6-.763,7.217,7.217,0,0,1-2.455-3.06,8.614,8.614,0,0,1-.761-3.777,7.963,7.963,0,0,1,.965-3.766,4.449,4.449,0,0,1,2.678-2.159,3.906,3.906,0,0,1,3.218.769,4.428,4.428,0,0,1,.343.283,7.812,7.812,0,0,1,1.886,2.794,9.994,9.994,0,0,1,.756,3.735A9.658,9.658,0,0,1,77.056,56.312Zm12.666-.719a7.223,7.223,0,0,1-2.457,3.06,5.062,5.062,0,0,1-3.595.763,3.634,3.634,0,0,1-2.341-2.188,6.38,6.38,0,0,1-.341-0.918,9.726,9.726,0,0,1-.352-2.838,10.016,10.016,0,0,1,.756-3.735,7.826,7.826,0,0,1,1.885-2.794c0.112-.1.226-0.2,0.345-0.283a3.906,3.906,0,0,1,3.219-.769,4.44,4.44,0,0,1,2.677,2.159,7.933,7.933,0,0,1,.965,3.766A8.632,8.632,0,0,1,89.722,55.593ZM76.9,56.03a5.975,5.975,0,0,1-.317.843A3.38,3.38,0,0,1,74.4,58.885a4.778,4.778,0,0,1-3.353-.7,6.645,6.645,0,0,1-2.287-2.814,7.831,7.831,0,0,1-.709-3.473,7.225,7.225,0,0,1,.9-3.462,4.124,4.124,0,0,1,2.494-1.986,3.684,3.684,0,0,1,3,.707c0.109,0.081.215,0.169,0.319,0.26a3.141,3.141,0,0,0-1.056.084,3.641,3.641,0,0,0-1.821,1.189,4.282,4.282,0,0,0-.91,1.933,4.914,4.914,0,0,0,.05,2.147A4.812,4.812,0,0,0,72,54.68a4.752,4.752,0,0,0,1.71,1.3,4.073,4.073,0,0,0,2.089.36A3.352,3.352,0,0,0,76.9,56.03Zm4.244,0.035a6.013,6.013,0,0,0,.316.843,3.373,3.373,0,0,0,2.172,2.013,4.749,4.749,0,0,0,3.342-.7A6.642,6.642,0,0,0,89.251,55.4a7.854,7.854,0,0,0,.707-3.472,7.246,7.246,0,0,0-.9-3.462,4.113,4.113,0,0,0-2.486-1.986,3.661,3.661,0,0,0-2.989.707c-0.108.08-.214,0.169-0.318,0.26a3.111,3.111,0,0,1,1.052.085,3.626,3.626,0,0,1,1.815,1.189,4.286,4.286,0,0,1,.907,1.933,4.931,4.931,0,0,1-.049,2.147,4.819,4.819,0,0,1-.964,1.911,4.743,4.743,0,0,1-1.7,1.3,4.051,4.051,0,0,1-2.082.36A3.324,3.324,0,0,1,81.143,56.066Z" transform="translate(-66 -26.25)"/>
</svg>
