<svg width="28" height="26" viewBox="0 0 28 26" fill="none" xmlns="http://www.w3.org/2000/svg">
<path d="M25.7586 18.6682C24.4305 17.8994 22.8117 18.1057 21.7211 19.0682L20.0648 18.1088V13.3682C20.0648 12.8776 19.8023 12.4213 19.3773 12.1776L15.1273 9.73069V7.63382C16.5086 7.16507 17.5023 5.85882 17.5023 4.31819C17.5023 2.38382 15.9367 0.818192 14.0023 0.818192C12.068 0.818192 10.5023 2.38382 10.5023 4.31819C10.5023 5.85882 11.4961 7.16507 12.8773 7.63382V9.73069L8.62735 12.1776C8.20234 12.4213 7.93985 12.8776 7.93985 13.3682V18.1057L6.28359 19.0651C5.19297 18.1026 3.57109 17.8963 2.24609 18.6651C0.574219 19.6338 0.00546902 21.7713 0.964844 23.4432C1.92734 25.1151 4.05547 25.6901 5.72109 24.7244C7.04922 23.9557 7.68047 22.4432 7.3961 21.0119L8.91797 20.1276L13.3117 22.6588C13.5242 22.7807 13.7617 22.8432 13.9992 22.8432C14.2367 22.8432 14.4742 22.7807 14.6867 22.6588L19.0773 20.1307L20.5992 21.0151C20.3148 22.4432 20.9492 23.9588 22.2742 24.7276C23.9398 25.6932 26.0711 25.1213 27.0305 23.4463C27.993 21.7713 27.4242 19.6338 25.7586 18.6682ZM4.72734 22.9932C4.55761 23.0915 4.37011 23.1553 4.17563 23.1808C3.98115 23.2064 3.78354 23.1932 3.59416 23.1421C3.40479 23.091 3.2274 23.0029 3.0722 22.883C2.917 22.763 2.78705 22.6136 2.68984 22.4432C2.27734 21.7276 2.52109 20.8088 3.23672 20.3963C3.40646 20.298 3.59396 20.2342 3.78844 20.2087C3.98291 20.1831 4.18053 20.1963 4.3699 20.2474C4.55927 20.2985 4.73666 20.3866 4.89186 20.5065C5.04706 20.6265 5.17701 20.776 5.27422 20.9463C5.68672 21.6619 5.44297 22.5807 4.72734 22.9932ZM12.4992 4.31819C12.5072 3.92567 12.6688 3.55193 12.9492 3.27716C13.2297 3.00239 13.6066 2.8485 13.9992 2.8485C14.3918 2.8485 14.7688 3.00239 15.0492 3.27716C15.3297 3.55193 15.4912 3.92567 15.4992 4.31819C15.4912 4.71071 15.3297 5.08446 15.0492 5.35922C14.7688 5.63399 14.3918 5.78788 13.9992 5.78788C13.6066 5.78788 13.2297 5.63399 12.9492 5.35922C12.6688 5.08446 12.5072 4.71071 12.4992 4.31819ZM17.8117 18.2619L13.9992 20.4588L10.1867 18.2619V13.8744L13.9992 11.6776L17.8117 13.8744V18.2619ZM25.3086 22.4463C24.8961 23.1619 23.9836 23.4088 23.2711 22.9963C22.5586 22.5838 22.3117 21.6651 22.7242 20.9494C23.1367 20.2338 24.0492 19.9869 24.7617 20.3994C25.4773 20.8119 25.7211 21.7276 25.3086 22.4463Z" fill="#00AF92"/>
</svg>
