<svg width="22" height="24" viewBox="0 0 22 24" fill="none" xmlns="http://www.w3.org/2000/svg">
<path d="M20.3333 23.6667H1.66667C1.35725 23.6667 1.0605 23.5437 0.841709 23.325C0.622916 23.1062 0.5 22.8094 0.5 22.5V1.49999C0.5 1.19058 0.622916 0.893829 0.841709 0.675037C1.0605 0.456245 1.35725 0.333328 1.66667 0.333328H20.3333C20.6428 0.333328 20.9395 0.456245 21.1583 0.675037C21.3771 0.893829 21.5 1.19058 21.5 1.49999V22.5C21.5 22.8094 21.3771 23.1062 21.1583 23.325C20.9395 23.5437 20.6428 23.6667 20.3333 23.6667ZM19.1667 21.3333V2.66666H2.83333V21.3333H19.1667ZM6.33333 8.5H15.6667V10.8333H6.33333V8.5ZM6.33333 13.1667H15.6667V15.5H6.33333V13.1667Z" fill="#00AF92"/>
</svg>
