<svg width="23" height="23" viewBox="0 0 23 23" fill="none" xmlns="http://www.w3.org/2000/svg">
<path d="M21.8659 7.39996H15.598V1.13211C15.598 0.866928 15.3811 0.649963 15.1159 0.649963H1.13375C0.868576 0.649963 0.651611 0.866928 0.651611 1.13211V15.1143C0.651611 15.3794 0.868576 15.5964 1.13375 15.5964H7.40161V21.8643C7.40161 22.1294 7.61858 22.3464 7.88376 22.3464H21.8659C22.1311 22.3464 22.348 22.1294 22.348 21.8643V7.88211C22.348 7.61693 22.1311 7.39996 21.8659 7.39996ZM7.40161 7.88211V13.5473H2.70072V2.69907H13.5489V7.39996H7.88376C7.61858 7.39996 7.40161 7.61693 7.40161 7.88211ZM13.5489 9.44907V13.5473H9.45072V9.44907H13.5489ZM20.2989 20.2973H9.45072V15.5964H15.1159C15.3811 15.5964 15.598 15.3794 15.598 15.1143V9.44907H20.2989V20.2973Z" fill="#00AF92"/>
</svg>
