<svg width="20" height="24" viewBox="0 0 20 24" fill="none" xmlns="http://www.w3.org/2000/svg">
<path d="M18.5708 0H1.42794C0.953837 0 0.570801 0.383036 0.570801 0.857143V23.1429C0.570801 23.617 0.953837 24 1.42794 24H18.5708C19.0449 24 19.4279 23.617 19.4279 23.1429V0.857143C19.4279 0.383036 19.0449 0 18.5708 0ZM11.6065 1.92857H14.1779V7.55089L12.9324 6.64286L11.6065 7.59107V1.92857ZM17.4994 22.0714H2.49937V1.92857H9.99937V9.88125C9.99937 9.96964 10.0262 10.058 10.0797 10.1304C10.1122 10.1763 10.1536 10.2154 10.2013 10.2453C10.249 10.2752 10.3022 10.2953 10.3577 10.3045C10.4133 10.3138 10.4701 10.3119 10.5249 10.299C10.5797 10.2861 10.6314 10.2625 10.6771 10.2295L12.9217 8.625L15.1021 10.2161C15.1744 10.2696 15.2628 10.2991 15.3538 10.2991C15.5896 10.2991 15.7824 10.1062 15.7824 9.87054V1.92857H17.4967V22.0714H17.4994Z" fill="#00AF92"/>
</svg>
