<svg width="20" height="24" viewBox="0 0 20 24" fill="none" xmlns="http://www.w3.org/2000/svg">
<path d="M19.6193 18.5348C19.2594 16.3526 17.321 14.7886 15.1128 14.8959C12.9045 15.0033 11.1286 16.7531 10.9864 18.9584C6.53221 18.8191 4.95073 17.7774 5.20899 15.6591C5.30475 14.8669 5.78355 14.4432 6.66279 14.2372C7.19672 14.1124 7.78868 14.095 8.32551 14.1444C8.37484 14.1502 8.42707 14.1531 8.4764 14.1589C8.80431 14.2372 9.13801 14.304 9.47172 14.3562C10.4612 14.5187 11.4681 14.5999 12.4257 14.5477C15.1186 14.4026 16.9525 13.2158 17.0454 10.697C17.1353 8.25664 15.4581 6.52717 12.7536 5.36936C11.886 4.99793 10.9661 4.71066 10.0463 4.49302C9.63131 4.39436 9.2831 4.32762 9.02484 4.28409C8.7956 2.08164 6.95006 0.401504 4.736 0.384093C2.52194 0.366683 0.647385 2.012 0.380421 4.21155C0.113457 6.4111 1.54114 8.45686 3.69426 8.96758C5.84739 9.47829 8.04404 8.29146 8.7927 6.20798C9.06547 6.25731 9.33533 6.31244 9.6052 6.37628C10.4235 6.5678 11.2418 6.82316 11.9963 7.14816C14.0478 8.0245 15.1679 9.18231 15.1157 10.6274C15.0693 11.9216 14.1407 12.5194 12.3242 12.618C11.5262 12.6615 10.6527 12.5919 9.79091 12.4497C9.55006 12.4091 9.32953 12.3685 9.13511 12.3249C9.02194 12.3017 8.94359 12.2814 8.90877 12.2727L8.81881 12.2553C8.75498 12.2466 8.64761 12.2321 8.50832 12.2176C7.78288 12.1508 6.99649 12.174 6.23042 12.3511C4.62864 12.7254 3.50564 13.7207 3.29672 15.4211C2.84114 19.0832 5.57752 20.7807 11.3056 20.9026C12.1501 22.9455 14.3931 24.0336 16.5173 23.4272C18.6443 22.8207 19.9791 20.7169 19.6193 18.5348ZM4.69248 7.15396C4.37503 7.15394 4.06069 7.0914 3.76741 6.9699C3.47414 6.8484 3.20766 6.67032 2.9832 6.44584C2.75875 6.22135 2.5807 5.95486 2.45924 5.66157C2.33778 5.36828 2.27527 5.05393 2.27529 4.73648C2.27531 4.41903 2.33785 4.1047 2.45935 3.81142C2.58085 3.51814 2.75893 3.25167 2.98341 3.02721C3.20789 2.80276 3.47439 2.62471 3.76768 2.50325C4.06097 2.38178 4.37532 2.31928 4.69276 2.31929C5.33388 2.31933 5.94872 2.57405 6.40204 3.02742C6.85535 3.48078 7.10999 4.09566 7.10995 4.73677C7.10991 5.37789 6.85519 5.99273 6.40183 6.44604C5.94846 6.89935 5.33359 7.154 4.69248 7.15396ZM15.3275 21.6571C15.0101 21.6571 14.6957 21.5945 14.4025 21.473C14.1092 21.3515 13.8427 21.1734 13.6183 20.949C13.3938 20.7245 13.2157 20.458 13.0943 20.1647C12.9728 19.8714 12.9103 19.5571 12.9103 19.2396C12.9104 18.9222 12.9729 18.6078 13.0944 18.3145C13.2159 18.0213 13.394 17.7548 13.6185 17.5303C13.8429 17.3059 14.1094 17.1278 14.4027 17.0064C14.696 16.8849 15.0104 16.8224 15.3278 16.8224C15.9689 16.8225 16.5838 17.0772 17.0371 17.5305C17.4904 17.9839 17.745 18.5988 17.745 19.2399C17.745 19.881 17.4902 20.4959 17.0369 20.9492C16.5835 21.4025 15.9686 21.6571 15.3275 21.6571Z" fill="#00AF92"/>
</svg>
