<svg height="78.838547mm" viewBox="0 0 183.34206 78.838547" width="183.34206mm" xmlns="http://www.w3.org/2000/svg" xmlns:xlink="http://www.w3.org/1999/xlink"><linearGradient id="a"><stop offset="0" stop-color="#58be23"/><stop offset="1" stop-color="#58be23" stop-opacity="0"/></linearGradient><linearGradient id="b" gradientUnits="userSpaceOnUse" x1="57.810398" x2="57.71685" xlink:href="#a" y1="93.821701" y2="169.68616"/><linearGradient id="c" gradientUnits="userSpaceOnUse" x1="17.212158" x2="18.334688" xlink:href="#a" y1="98.592461" y2="169.68616"/><g transform="translate(-6.508573 -81.797868)"><path d="m33.582416 108.22753 37.885455-13.751017-26.005324-12.534939-37.2306458 13.938104z" fill="#58be23" stroke="#58be23" stroke-width=".264583"/><path d="m72.683946 96.253857-27.408489 9.541523.09354 28.34393 27.034312 12.81558z" fill="url(#b)"/><path d="m32.646971 110.00487-26.0053233-12.441392.1870888 50.326852 25.9117815 12.53494z" fill="url(#c)"/><g stroke="#58be23"><path d="m91.392813 109.16298h3.928864l19.270133 31.15026v-31.33735h3.74177v35.82748h-4.67721l-18.989505-31.33736v30.96318h-3.274052z" fill="#58be23" stroke-width=".265"/><path d="m128.62346 109.16298v35.64039h20.11203l1.6838-3.3676h-18.70887v-13.84456h15.52836l1.77734-2.99342h-17.39924v-12.90912h16.65089l1.21608-2.80633z" fill="#58be23" stroke-width=".264583"/><text style="font-size:10.050719;font-family:sans-serif;letter-spacing:0;word-spacing:0;fill:#58be23;stroke-width:.269216" transform="scale(1.0175082 .98279305)" x="89.692024" y="158.57321"><tspan fill="#58be23" font-size="10.050719" stroke="#58be23" stroke-width=".269216" x="89.692024" y="158.57321">smart economy</tspan></text><path d="m170.56052 109.96152s-13.3102-.43198-12.63111 17.56694c.67909 17.99893 13.03856 16.27103 13.03856 16.27103s12.08782.43198 12.35946-17.27897c.27163-17.71095-12.76691-16.559-12.76691-16.559z" fill="none" stroke-width="3.587947"/></g></g></svg>